<?xml version="1.0" standalone="no"?>
<!DOCTYPE svg PUBLIC "-//W3C//DTD SVG 20010904//EN"
 "http://www.w3.org/TR/2001/REC-SVG-20010904/DTD/svg10.dtd">
<svg version="1.0" xmlns="http://www.w3.org/2000/svg"
 width="845.000000pt" height="1280.000000pt" viewBox="0 0 845.000000 1280.000000"
 preserveAspectRatio="xMidYMid meet">
<metadata>
Created by potrace 1.15, written by Peter Selinger 2001-2017
</metadata>
<g transform="translate(0.000000,1280.000000) scale(0.100000,-0.100000)"
fill="#000000" stroke="none">
<path d="M3210 12743 c-12 -32 -42 -114 -67 -182 l-46 -124 18 -33 c16 -29 28
-37 89 -55 119 -35 170 -65 235 -135 53 -59 141 -208 141 -241 0 -7 -15 -15
-32 -18 -18 -3 -161 -28 -318 -55 -274 -48 -290 -52 -418 -107 -86 -36 -129
-59 -120 -64 7 -4 10 -10 8 -12 -3 -2 -113 -15 -245 -28 l-240 -26 -116 -76
c-64 -42 -122 -77 -129 -77 -6 0 -20 -10 -30 -22 -15 -19 -21 -21 -31 -10 -19
18 -32 15 -26 -8 3 -11 -2 -25 -10 -32 -12 -10 -17 -9 -28 5 -19 27 -36 21
-29 -10 10 -37 -21 -61 -48 -36 -22 20 -37 9 -21 -16 9 -14 7 -20 -8 -29 -12
-8 -20 -8 -24 -2 -9 14 -27 1 -21 -15 4 -12 -19 -30 -36 -27 -3 1 -21 -16 -40
-37 -47 -54 -73 -86 -68 -86 2 0 -2 -10 -9 -22 -6 -13 -17 -22 -24 -20 -7 1
-12 -7 -12 -18 0 -30 -13 -44 -35 -38 -22 6 -26 -7 -8 -25 17 -17 -9 -47 -28
-31 -21 17 -38 0 -19 -21 8 -9 13 -24 9 -34 -8 -20 -9 -20 -38 0 -31 20 -47
-1 -17 -22 23 -17 25 -22 12 -43 -7 -11 -14 -10 -39 8 -27 19 -30 19 -36 4 -7
-16 16 -43 36 -43 12 0 10 -28 -3 -36 -6 -3 -22 -1 -35 7 -18 9 -27 10 -36 1
-8 -8 -4 -14 15 -23 15 -7 27 -18 27 -26 0 -19 -29 -28 -43 -14 -15 15 -37 14
-37 -2 0 -8 11 -19 25 -25 22 -10 24 -15 15 -32 -10 -19 -12 -19 -36 -4 -18
12 -28 14 -36 6 -7 -7 -2 -15 16 -27 21 -14 24 -21 15 -36 -9 -18 -12 -18 -32
-4 -12 8 -25 15 -29 15 -16 0 -7 -28 13 -42 21 -14 21 -14 -26 -88 -26 -41
-75 -104 -110 -140 -96 -99 -219 -324 -298 -545 -38 -105 -52 -177 -62 -310
-3 -44 -15 -114 -25 -156 -56 -219 -123 -722 -164 -1229 -16 -191 -19 -302
-37 -1185 l-10 -520 56 -235 57 -235 8 -279 c8 -256 7 -287 -10 -360 -10 -45
-22 -103 -26 -131 -4 -27 -38 -135 -75 -240 -48 -132 -69 -205 -70 -240 -1
-33 -3 -42 -7 -27 l-7 22 -36 -24 c-35 -24 -36 -26 -42 -108 -5 -62 -17 -111
-46 -188 -98 -260 -186 -612 -246 -988 l-7 -42 34 0 c18 0 49 3 68 6 l36 6 11
156 c27 355 86 617 174 770 17 30 32 52 34 50 2 -1 -7 -48 -21 -103 -24 -102
-43 -341 -44 -544 0 -93 0 -95 -38 -145 -49 -66 -82 -123 -82 -143 0 -8 12
-52 26 -98 l26 -82 -36 -71 -36 -71 51 -88 52 -88 -27 -128 c-21 -103 -24
-133 -14 -150 6 -12 17 -50 25 -85 7 -35 24 -78 37 -95 l24 -32 -24 -60 c-13
-33 -22 -65 -20 -72 3 -7 -2 -16 -10 -21 -13 -7 -8 -24 37 -113 l52 -104 -19
-428 c-10 -235 -18 -427 -17 -427 1 0 22 28 45 63 37 53 44 72 48 125 l5 63
74 -128 c65 -113 342 -527 376 -562 7 -7 118 -49 247 -92 175 -59 247 -79 288
-79 30 0 233 -14 450 -30 358 -27 439 -30 865 -30 l470 0 205 -30 c113 -17
234 -35 270 -40 419 -61 545 -82 570 -95 15 -8 115 -32 222 -54 178 -37 222
-41 577 -64 l384 -24 127 28 c80 18 262 43 486 67 l359 39 92 47 c51 25 99 43
107 40 8 -3 57 22 111 56 54 34 108 63 121 65 13 1 33 14 44 28 11 14 40 38
65 54 37 23 48 37 61 78 9 28 27 73 39 100 32 71 47 123 40 135 -3 6 5 10 19
10 43 0 191 39 201 53 6 8 28 20 50 27 22 7 59 23 83 35 23 13 42 21 42 18 0
-4 -38 -57 -84 -119 -104 -138 -176 -276 -176 -337 0 -40 -5 -47 -85 -127 -78
-78 -90 -86 -157 -106 -72 -21 -72 -21 -89 -70 -26 -73 -24 -85 26 -134 l45
-44 251 49 252 50 71 122 71 121 170 77 c169 76 171 77 263 168 50 50 92 99
92 108 0 12 15 21 51 30 47 12 56 20 106 87 65 88 64 84 104 289 l32 163 -44
47 c-43 47 -58 55 -130 67 -56 10 -89 63 -89 146 0 54 5 72 36 128 l37 65 -28
268 -28 268 89 101 c49 56 96 111 105 123 23 31 120 327 112 341 -4 6 -153
206 -331 445 l-324 434 -80 296 c-44 163 -82 316 -83 341 -14 189 -76 639
-133 965 l-69 391 22 139 c13 77 39 223 59 325 38 199 57 319 56 363 0 15 4
27 10 27 5 0 10 7 10 15 0 8 -4 15 -10 15 -5 0 -10 9 -10 20 0 11 6 20 14 20
8 0 16 7 20 15 3 9 0 15 -9 15 -9 0 -15 10 -15 25 0 19 5 25 16 23 25 -4 28
19 4 27 -14 4 -19 12 -16 22 3 8 6 19 6 24 0 5 7 9 15 9 8 0 15 5 15 10 0 6
-7 13 -15 16 -16 6 -21 44 -7 44 13 0 3 150 -19 293 -11 70 -17 132 -14 138 4
5 1 16 -5 24 -7 9 -9 26 -5 45 4 20 3 30 -5 30 -9 0 -10 10 -6 31 4 21 1 35
-9 46 -17 17 -20 33 -5 33 6 0 10 9 10 20 0 11 -4 20 -10 20 -14 0 -13 26 2
51 11 17 11 23 1 26 -15 6 -17 43 -3 43 6 0 10 7 10 15 0 8 -7 15 -15 15 -8 0
-15 9 -15 20 0 11 5 20 10 20 6 0 10 7 10 15 0 8 -4 15 -10 15 -5 0 -10 9 -10
20 0 11 5 20 10 20 6 0 10 7 10 15 0 8 -5 15 -11 15 -7 0 -9 11 -5 30 3 17 0
39 -6 50 -9 14 -9 22 2 35 9 11 10 19 4 23 -13 9 -13 241 0 261 6 9 3 17 -8
23 -20 11 -21 34 -1 42 8 3 15 10 15 16 0 5 -7 10 -15 10 -9 0 -15 9 -15 25 0
16 6 25 15 25 8 0 15 9 15 20 0 13 -7 20 -20 20 -22 0 -29 34 -9 45 7 5 6 12
-4 23 -9 11 -17 52 -20 112 -42 654 -100 1258 -155 1605 -7 44 -28 76 -183
280 -190 251 -371 500 -441 610 -49 76 -63 88 -196 169 -167 101 -593 272
-773 310 -22 5 -27 12 -32 48 -7 54 -89 217 -165 327 l-57 83 -235 132 c-129
73 -300 173 -380 223 l-145 91 -190 31 -190 31 -439 0 -440 0 -60 39 c-34 22
-80 42 -103 46 l-41 6 -22 -58z m980 -544 c146 -7 355 -9 550 -5 l316 7 107
-193 c97 -174 105 -193 87 -196 -12 -2 -139 6 -283 18 -199 16 -273 19 -307
11 -25 -6 -119 -11 -208 -11 -192 0 -247 12 -334 73 -45 32 -58 47 -63 76 -9
46 -22 71 -89 165 -49 68 -54 78 -33 73 12 -4 129 -12 257 -18z m-337 -236
c-23 -2 -64 -2 -90 0 -26 2 -7 3 42 3 50 0 71 -1 48 -3z m1712 -180 c94 -22
68 -28 -35 -9 -45 9 -96 16 -114 16 -21 0 -27 3 -17 9 17 11 73 5 166 -16z
m-5185 -7290 c0 -24 -3 -33 -9 -25 -7 12 -4 62 5 62 2 0 4 -17 4 -37z m-47
-29 c-22 -34 -33 -30 -33 11 0 33 1 34 24 23 23 -10 24 -12 9 -34z m32 -2009
c26 -36 54 -69 63 -75 15 -8 16 -9 1 -10 -10 0 -19 -12 -24 -32 -7 -32 -8 -32
-20 23 -6 31 -26 80 -43 108 -18 28 -30 51 -27 51 2 0 25 -29 50 -65z m7502
-182 c-3 -10 -5 -4 -5 12 0 17 2 24 5 18 2 -7 2 -21 0 -30z m-7470 -60 c-3
-10 -5 -2 -5 17 0 19 2 27 5 18 2 -10 2 -26 0 -35z m5880 -239 c-1 -1 -15 -4
-32 -8 l-30 -7 25 20 c17 14 27 16 32 8 4 -6 6 -12 5 -13z m1388 -565 c9 -46
18 -94 20 -106 4 -15 -7 -35 -35 -68 -23 -27 -40 -57 -40 -71 0 -23 -2 -24
-82 -24 l-83 0 31 19 c40 24 62 80 39 97 -14 11 -14 13 0 27 8 9 15 21 15 27
0 7 9 23 20 37 11 14 20 34 20 44 0 10 13 27 30 39 16 12 33 32 36 46 4 14 8
23 10 21 2 -2 11 -41 19 -88z"/>
</g>
</svg>
